<mxfile host="app.diagrams.net" agent="Mozilla/5.0 (Windows NT 10.0; Win64; x64) AppleWebKit/537.36 (KHTML, like Gecko) Chrome/139.0.0.0 Safari/537.36 Edg/139.0.0.0" version="28.1.1">
  <diagram id="C5RBs43oDa-KdzZeNtuy" name="Page-1">
    <mxGraphModel dx="2895" dy="1140" grid="1" gridSize="10" guides="1" tooltips="1" connect="1" arrows="1" fold="1" page="1" pageScale="1" pageWidth="827" pageHeight="1169" math="0" shadow="0">
      <root>
        <mxCell id="WIyWlLk6GJQsqaUBKTNV-0" />
        <mxCell id="WIyWlLk6GJQsqaUBKTNV-1" parent="WIyWlLk6GJQsqaUBKTNV-0" />
        <mxCell id="zkfFHV4jXpPFQw0GAbJ--0" value="Class (University)" style="swimlane;fontStyle=2;align=center;verticalAlign=top;childLayout=stackLayout;horizontal=1;startSize=26;horizontalStack=0;resizeParent=1;resizeLast=0;collapsible=1;marginBottom=0;rounded=0;shadow=0;strokeWidth=1;" parent="WIyWlLk6GJQsqaUBKTNV-1" vertex="1">
          <mxGeometry x="60" width="370" height="500" as="geometry">
            <mxRectangle x="230" y="140" width="160" height="26" as="alternateBounds" />
          </mxGeometry>
        </mxCell>
        <mxCell id="zkfFHV4jXpPFQw0GAbJ--1" value="- users : List&lt;User&gt;&#xa;  - students : List&lt;Student&gt;&#xa;  - faculties : List&lt;Faculty&gt;&#xa;  - adminStaffs : List&lt;AdminStaff&gt;&#xa;  - systemAdmins : List&lt;SystemAdmin&gt;&#xa;  - courses : List&lt;Course&gt;&#xa;  - departments : List&lt;Department&gt;&#xa;  - enrollments : List&lt;Enrollment&gt;" style="text;align=left;verticalAlign=top;spacingLeft=4;spacingRight=4;overflow=hidden;rotatable=0;points=[[0,0.5],[1,0.5]];portConstraint=eastwest;" parent="zkfFHV4jXpPFQw0GAbJ--0" vertex="1">
          <mxGeometry y="26" width="370" height="124" as="geometry" />
        </mxCell>
        <mxCell id="zkfFHV4jXpPFQw0GAbJ--4" value="" style="line;html=1;strokeWidth=1;align=left;verticalAlign=middle;spacingTop=-1;spacingLeft=3;spacingRight=3;rotatable=0;labelPosition=right;points=[];portConstraint=eastwest;" parent="zkfFHV4jXpPFQw0GAbJ--0" vertex="1">
          <mxGeometry y="150" width="370" height="8" as="geometry" />
        </mxCell>
        <mxCell id="zkfFHV4jXpPFQw0GAbJ--5" value="  + University()&#xa;  + addStudent(s) : void&#xa;  + addFaculty(f) : void&#xa;  + addAdminStaff(a) : void&#xa;  + addSystemAdmin(sa) : void&#xa;  + addCourse(c) : void&#xa;  + addDepartment(d) : void&#xa;  + addEnrollment(e) : void&#xa;  + findStudentById(id) : Student&#xa;  + findFacultyById(id) : Faculty&#xa;  + findCourseByCode(code) : Course&#xa;  + findDepartmentById(id) : Department&#xa;  + authenticate(username,password) : User&#xa;  + withdrawStudentFromCourse(studentId,courseCode) : boolean&#xa;  + registerStudentForCourse(studentId,courseCode,date) : String&#xa;  + getUsers() : List&lt;User&gt;&#xa;  + getStudents() : List&lt;Student&gt;&#xa;  + getFaculties() : List&lt;Faculty&gt;&#xa;  + getAdminStaffs() : List&lt;AdminStaff&gt;&#xa;  + getSystemAdmins() : List&lt;SystemAdmin&gt;&#xa;  + getCourses() : List&lt;Course&gt;&#xa;  + getDepartments() : List&lt;Department&gt;&#xa;  + getEnrollments() : List&lt;Enrollment&gt;&#xa;" style="text;align=left;verticalAlign=top;spacingLeft=4;spacingRight=4;overflow=hidden;rotatable=0;points=[[0,0.5],[1,0.5]];portConstraint=eastwest;" parent="zkfFHV4jXpPFQw0GAbJ--0" vertex="1">
          <mxGeometry y="158" width="370" height="332" as="geometry" />
        </mxCell>
        <mxCell id="0IOI9WurKknLm3v2o658-0" value="Class (Department)" style="swimlane;fontStyle=2;align=center;verticalAlign=top;childLayout=stackLayout;horizontal=1;startSize=26;horizontalStack=0;resizeParent=1;resizeLast=0;collapsible=1;marginBottom=0;rounded=0;shadow=0;strokeWidth=1;" vertex="1" parent="WIyWlLk6GJQsqaUBKTNV-1">
          <mxGeometry x="-90" y="530" width="240" height="240" as="geometry">
            <mxRectangle x="230" y="140" width="160" height="26" as="alternateBounds" />
          </mxGeometry>
        </mxCell>
        <mxCell id="0IOI9WurKknLm3v2o658-1" value=" - id : String&#xa;  - name : String&#xa;  - facultyIds : List&lt;String&gt;&#xa;  - offeredCourses : List&lt;String&gt;" style="text;align=left;verticalAlign=top;spacingLeft=4;spacingRight=4;overflow=hidden;rotatable=0;points=[[0,0.5],[1,0.5]];portConstraint=eastwest;" vertex="1" parent="0IOI9WurKknLm3v2o658-0">
          <mxGeometry y="26" width="240" height="64" as="geometry" />
        </mxCell>
        <mxCell id="0IOI9WurKknLm3v2o658-2" value="" style="line;html=1;strokeWidth=1;align=left;verticalAlign=middle;spacingTop=-1;spacingLeft=3;spacingRight=3;rotatable=0;labelPosition=right;points=[];portConstraint=eastwest;" vertex="1" parent="0IOI9WurKknLm3v2o658-0">
          <mxGeometry y="90" width="240" height="8" as="geometry" />
        </mxCell>
        <mxCell id="0IOI9WurKknLm3v2o658-3" value=" + Department(id,name)&#xa;  + getId() : String&#xa;  + getName() : String&#xa;  + addFaculty(facultyId) : void&#xa;  + removeFaculty(facultyId) : void&#xa;  + addCourse(courseCode) : void&#xa;  + removeCourse(courseCode) : void&#xa;  + getFacultyIds() : List&lt;String&gt;&#xa;  + getOfferedCourses() : List&lt;String&gt;" style="text;align=left;verticalAlign=top;spacingLeft=4;spacingRight=4;overflow=hidden;rotatable=0;points=[[0,0.5],[1,0.5]];portConstraint=eastwest;" vertex="1" parent="0IOI9WurKknLm3v2o658-0">
          <mxGeometry y="98" width="240" height="142" as="geometry" />
        </mxCell>
        <mxCell id="0IOI9WurKknLm3v2o658-4" value="Class (Student)" style="swimlane;fontStyle=2;align=center;verticalAlign=top;childLayout=stackLayout;horizontal=1;startSize=26;horizontalStack=0;resizeParent=1;resizeLast=0;collapsible=1;marginBottom=0;rounded=0;shadow=0;strokeWidth=1;" vertex="1" parent="WIyWlLk6GJQsqaUBKTNV-1">
          <mxGeometry x="-510" y="80" width="470" height="240" as="geometry">
            <mxRectangle x="230" y="140" width="160" height="26" as="alternateBounds" />
          </mxGeometry>
        </mxCell>
        <mxCell id="0IOI9WurKknLm3v2o658-5" value=" - admissionDate : String&#xa;  - academicStatus : String&#xa;  - enrolledCourses : List&lt;String&gt;" style="text;align=left;verticalAlign=top;spacingLeft=4;spacingRight=4;overflow=hidden;rotatable=0;points=[[0,0.5],[1,0.5]];portConstraint=eastwest;" vertex="1" parent="0IOI9WurKknLm3v2o658-4">
          <mxGeometry y="26" width="470" height="54" as="geometry" />
        </mxCell>
        <mxCell id="0IOI9WurKknLm3v2o658-6" value="" style="line;html=1;strokeWidth=1;align=left;verticalAlign=middle;spacingTop=-1;spacingLeft=3;spacingRight=3;rotatable=0;labelPosition=right;points=[];portConstraint=eastwest;" vertex="1" parent="0IOI9WurKknLm3v2o658-4">
          <mxGeometry y="80" width="470" height="8" as="geometry" />
        </mxCell>
        <mxCell id="0IOI9WurKknLm3v2o658-7" value="  + Student(id, name, username, password, email, admissionDate, academicStatus)&#xa;  + addCourse(courseCode) : void&#xa;  + removeCourse(courseCode) : void&#xa;  + getEnrolledCourses() : List&lt;String&gt;&#xa;  + getAdmissionDate() : String&#xa;  + getAcademicStatus() : String&#xa;  + setAdmissionDate(d) : void&#xa;  + setAcademicStatus(s) : void&#xa;  + calculateGPA(uni : University) : double&#xa;  + getRole() : String" style="text;align=left;verticalAlign=top;spacingLeft=4;spacingRight=4;overflow=hidden;rotatable=0;points=[[0,0.5],[1,0.5]];portConstraint=eastwest;" vertex="1" parent="0IOI9WurKknLm3v2o658-4">
          <mxGeometry y="88" width="470" height="142" as="geometry" />
        </mxCell>
        <mxCell id="0IOI9WurKknLm3v2o658-8" value="Class (Faculty)" style="swimlane;fontStyle=2;align=center;verticalAlign=top;childLayout=stackLayout;horizontal=1;startSize=26;horizontalStack=0;resizeParent=1;resizeLast=0;collapsible=1;marginBottom=0;rounded=0;shadow=0;strokeWidth=1;" vertex="1" parent="WIyWlLk6GJQsqaUBKTNV-1">
          <mxGeometry x="-10" y="820" width="380" height="200" as="geometry">
            <mxRectangle x="230" y="140" width="160" height="26" as="alternateBounds" />
          </mxGeometry>
        </mxCell>
        <mxCell id="0IOI9WurKknLm3v2o658-9" value=" - department : String&#xa;  - expertise : String&#xa;  - coursesTeaching : List&lt;String&gt;" style="text;align=left;verticalAlign=top;spacingLeft=4;spacingRight=4;overflow=hidden;rotatable=0;points=[[0,0.5],[1,0.5]];portConstraint=eastwest;" vertex="1" parent="0IOI9WurKknLm3v2o658-8">
          <mxGeometry y="26" width="380" height="54" as="geometry" />
        </mxCell>
        <mxCell id="0IOI9WurKknLm3v2o658-10" value="" style="line;html=1;strokeWidth=1;align=left;verticalAlign=middle;spacingTop=-1;spacingLeft=3;spacingRight=3;rotatable=0;labelPosition=right;points=[];portConstraint=eastwest;" vertex="1" parent="0IOI9WurKknLm3v2o658-8">
          <mxGeometry y="80" width="380" height="8" as="geometry" />
        </mxCell>
        <mxCell id="0IOI9WurKknLm3v2o658-11" value="  + Faculty(id,name,username,password,email,department,expertise)&#xa;  + getDepartment() : String&#xa;  + getExpertise() : String&#xa;  + addCourseTeaching(courseCode) : void&#xa;  + removeCourseTeaching(courseCode) : void&#xa;  + getCoursesTeaching() : List&lt;String&gt;&#xa;  + getRole() : String" style="text;align=left;verticalAlign=top;spacingLeft=4;spacingRight=4;overflow=hidden;rotatable=0;points=[[0,0.5],[1,0.5]];portConstraint=eastwest;" vertex="1" parent="0IOI9WurKknLm3v2o658-8">
          <mxGeometry y="88" width="380" height="112" as="geometry" />
        </mxCell>
        <mxCell id="0IOI9WurKknLm3v2o658-12" value="Class (AdminStaff)" style="swimlane;fontStyle=2;align=center;verticalAlign=top;childLayout=stackLayout;horizontal=1;startSize=26;horizontalStack=0;resizeParent=1;resizeLast=0;collapsible=1;marginBottom=0;rounded=0;shadow=0;strokeWidth=1;" vertex="1" parent="WIyWlLk6GJQsqaUBKTNV-1">
          <mxGeometry x="390" y="640" width="370" height="180" as="geometry">
            <mxRectangle x="230" y="140" width="160" height="26" as="alternateBounds" />
          </mxGeometry>
        </mxCell>
        <mxCell id="0IOI9WurKknLm3v2o658-13" value=" - department : String&#xa;  - role : String" style="text;align=left;verticalAlign=top;spacingLeft=4;spacingRight=4;overflow=hidden;rotatable=0;points=[[0,0.5],[1,0.5]];portConstraint=eastwest;" vertex="1" parent="0IOI9WurKknLm3v2o658-12">
          <mxGeometry y="26" width="370" height="44" as="geometry" />
        </mxCell>
        <mxCell id="0IOI9WurKknLm3v2o658-14" value="" style="line;html=1;strokeWidth=1;align=left;verticalAlign=middle;spacingTop=-1;spacingLeft=3;spacingRight=3;rotatable=0;labelPosition=right;points=[];portConstraint=eastwest;" vertex="1" parent="0IOI9WurKknLm3v2o658-12">
          <mxGeometry y="70" width="370" height="8" as="geometry" />
        </mxCell>
        <mxCell id="0IOI9WurKknLm3v2o658-15" value=" + AdminStaff(id,name,username,password,email,department,role)&#xa;  + getDepartment() : String&#xa;  + getStaffRole() : String&#xa;  + setDepartment(d) : void&#xa;  + setStaffRole(r) : void&#xa;  + getRole() : String" style="text;align=left;verticalAlign=top;spacingLeft=4;spacingRight=4;overflow=hidden;rotatable=0;points=[[0,0.5],[1,0.5]];portConstraint=eastwest;" vertex="1" parent="0IOI9WurKknLm3v2o658-12">
          <mxGeometry y="78" width="370" height="92" as="geometry" />
        </mxCell>
        <mxCell id="0IOI9WurKknLm3v2o658-16" value="Class (SystemAdmin)" style="swimlane;fontStyle=2;align=center;verticalAlign=top;childLayout=stackLayout;horizontal=1;startSize=26;horizontalStack=0;resizeParent=1;resizeLast=0;collapsible=1;marginBottom=0;rounded=0;shadow=0;strokeWidth=1;" vertex="1" parent="WIyWlLk6GJQsqaUBKTNV-1">
          <mxGeometry x="600" y="450" width="370" height="130" as="geometry">
            <mxRectangle x="230" y="140" width="160" height="26" as="alternateBounds" />
          </mxGeometry>
        </mxCell>
        <mxCell id="0IOI9WurKknLm3v2o658-17" value="- securityLevel : String" style="text;align=left;verticalAlign=top;spacingLeft=4;spacingRight=4;overflow=hidden;rotatable=0;points=[[0,0.5],[1,0.5]];portConstraint=eastwest;" vertex="1" parent="0IOI9WurKknLm3v2o658-16">
          <mxGeometry y="26" width="370" height="24" as="geometry" />
        </mxCell>
        <mxCell id="0IOI9WurKknLm3v2o658-18" value="" style="line;html=1;strokeWidth=1;align=left;verticalAlign=middle;spacingTop=-1;spacingLeft=3;spacingRight=3;rotatable=0;labelPosition=right;points=[];portConstraint=eastwest;" vertex="1" parent="0IOI9WurKknLm3v2o658-16">
          <mxGeometry y="50" width="370" height="8" as="geometry" />
        </mxCell>
        <mxCell id="0IOI9WurKknLm3v2o658-19" value="  + SystemAdmin(id,name,username,password,email,securityLevel)&#xa;  + getSecurityLevel() : String&#xa;  + setSecurityLevel(s) : void&#xa;  + getRole() : String" style="text;align=left;verticalAlign=top;spacingLeft=4;spacingRight=4;overflow=hidden;rotatable=0;points=[[0,0.5],[1,0.5]];portConstraint=eastwest;" vertex="1" parent="0IOI9WurKknLm3v2o658-16">
          <mxGeometry y="58" width="370" height="72" as="geometry" />
        </mxCell>
        <mxCell id="0IOI9WurKknLm3v2o658-20" value="Class (Course)" style="swimlane;fontStyle=2;align=center;verticalAlign=top;childLayout=stackLayout;horizontal=1;startSize=26;horizontalStack=0;resizeParent=1;resizeLast=0;collapsible=1;marginBottom=0;rounded=0;shadow=0;strokeWidth=1;" vertex="1" parent="WIyWlLk6GJQsqaUBKTNV-1">
          <mxGeometry x="680" y="40" width="500" height="360" as="geometry">
            <mxRectangle x="230" y="140" width="160" height="26" as="alternateBounds" />
          </mxGeometry>
        </mxCell>
        <mxCell id="0IOI9WurKknLm3v2o658-21" value="  - code : String&#xa;  - title : String&#xa;  - description : String&#xa;  - creditHours : double&#xa;  - prerequisites : List&lt;String&gt;&#xa;  - instructorId : String&#xa;  - maxEnrollment : int&#xa;  - schedule : String" style="text;align=left;verticalAlign=top;spacingLeft=4;spacingRight=4;overflow=hidden;rotatable=0;points=[[0,0.5],[1,0.5]];portConstraint=eastwest;" vertex="1" parent="0IOI9WurKknLm3v2o658-20">
          <mxGeometry y="26" width="500" height="124" as="geometry" />
        </mxCell>
        <mxCell id="0IOI9WurKknLm3v2o658-22" value="" style="line;html=1;strokeWidth=1;align=left;verticalAlign=middle;spacingTop=-1;spacingLeft=3;spacingRight=3;rotatable=0;labelPosition=right;points=[];portConstraint=eastwest;" vertex="1" parent="0IOI9WurKknLm3v2o658-20">
          <mxGeometry y="150" width="500" height="8" as="geometry" />
        </mxCell>
        <mxCell id="0IOI9WurKknLm3v2o658-23" value=" + Course(code,title,description,creditHours,prereqCsv,instructorId,maxEnrollment,schedule)&#xa;  + getCode() : String&#xa;  + getTitle() : String&#xa;  + getDescription() : String&#xa;  + getCreditHours() : double&#xa;  + getPrerequisites() : List&lt;String&gt;&#xa;  + getInstructorId() : String&#xa;  + getMaxEnrollment() : int&#xa;  + getSchedule() : String&#xa;  + setInstructorId(id) : void&#xa;  + setMaxEnrollment(m) : void&#xa;  + setSchedule(s) : void&#xa;  + hasAvailableSeats(uni : University) : boolean" style="text;align=left;verticalAlign=top;spacingLeft=4;spacingRight=4;overflow=hidden;rotatable=0;points=[[0,0.5],[1,0.5]];portConstraint=eastwest;" vertex="1" parent="0IOI9WurKknLm3v2o658-20">
          <mxGeometry y="158" width="500" height="202" as="geometry" />
        </mxCell>
        <mxCell id="0IOI9WurKknLm3v2o658-24" value="Class (Enrollment)" style="swimlane;fontStyle=2;align=center;verticalAlign=top;childLayout=stackLayout;horizontal=1;startSize=26;horizontalStack=0;resizeParent=1;resizeLast=0;collapsible=1;marginBottom=0;rounded=0;shadow=0;strokeWidth=1;" vertex="1" parent="WIyWlLk6GJQsqaUBKTNV-1">
          <mxGeometry x="850" y="630" width="370" height="240" as="geometry">
            <mxRectangle x="230" y="140" width="160" height="26" as="alternateBounds" />
          </mxGeometry>
        </mxCell>
        <mxCell id="0IOI9WurKknLm3v2o658-25" value="  - studentId : String&#xa;  - courseCode : String&#xa;  - enrollmentDate : String&#xa;  - grade : double&#xa;  - status : String" style="text;align=left;verticalAlign=top;spacingLeft=4;spacingRight=4;overflow=hidden;rotatable=0;points=[[0,0.5],[1,0.5]];portConstraint=eastwest;" vertex="1" parent="0IOI9WurKknLm3v2o658-24">
          <mxGeometry y="26" width="370" height="84" as="geometry" />
        </mxCell>
        <mxCell id="0IOI9WurKknLm3v2o658-26" value="" style="line;html=1;strokeWidth=1;align=left;verticalAlign=middle;spacingTop=-1;spacingLeft=3;spacingRight=3;rotatable=0;labelPosition=right;points=[];portConstraint=eastwest;" vertex="1" parent="0IOI9WurKknLm3v2o658-24">
          <mxGeometry y="110" width="370" height="8" as="geometry" />
        </mxCell>
        <mxCell id="0IOI9WurKknLm3v2o658-27" value="  + Enrollment(studentId,courseCode,enrollmentDate,grade,status)&#xa;  + getStudentId() : String&#xa;  + getCourseCode() : String&#xa;  + getEnrollmentDate() : String&#xa;  + getGrade() : double&#xa;  + getStatus() : String&#xa;  + setGrade(g) : void&#xa;  + setStatus(s) : void" style="text;align=left;verticalAlign=top;spacingLeft=4;spacingRight=4;overflow=hidden;rotatable=0;points=[[0,0.5],[1,0.5]];portConstraint=eastwest;" vertex="1" parent="0IOI9WurKknLm3v2o658-24">
          <mxGeometry y="118" width="370" height="122" as="geometry" />
        </mxCell>
        <mxCell id="0IOI9WurKknLm3v2o658-28" value="Abstract(User)" style="swimlane;fontStyle=2;align=center;verticalAlign=top;childLayout=stackLayout;horizontal=1;startSize=26;horizontalStack=0;resizeParent=1;resizeLast=0;collapsible=1;marginBottom=0;rounded=0;shadow=0;strokeWidth=1;" vertex="1" parent="WIyWlLk6GJQsqaUBKTNV-1">
          <mxGeometry x="-450" y="480" width="260" height="280" as="geometry">
            <mxRectangle x="230" y="140" width="160" height="26" as="alternateBounds" />
          </mxGeometry>
        </mxCell>
        <mxCell id="0IOI9WurKknLm3v2o658-29" value=" # id : String&#xa;  # name : String&#xa;  # username : String&#xa;  # password : String&#xa;  # email : String" style="text;align=left;verticalAlign=top;spacingLeft=4;spacingRight=4;overflow=hidden;rotatable=0;points=[[0,0.5],[1,0.5]];portConstraint=eastwest;" vertex="1" parent="0IOI9WurKknLm3v2o658-28">
          <mxGeometry y="26" width="260" height="84" as="geometry" />
        </mxCell>
        <mxCell id="0IOI9WurKknLm3v2o658-30" value="" style="line;html=1;strokeWidth=1;align=left;verticalAlign=middle;spacingTop=-1;spacingLeft=3;spacingRight=3;rotatable=0;labelPosition=right;points=[];portConstraint=eastwest;" vertex="1" parent="0IOI9WurKknLm3v2o658-28">
          <mxGeometry y="110" width="260" height="8" as="geometry" />
        </mxCell>
        <mxCell id="0IOI9WurKknLm3v2o658-31" value="  + User(id, name, username, password, email)&#xa;  + getId() : String&#xa;  + getName() : String&#xa;  + getUsername() : String&#xa;  + getPassword() : String&#xa;  + getEmail() : String&#xa;  + setName(name) : void&#xa;  + setPassword(password) : void&#xa;  + setEmail(email) : void&#xa;  + getRole() : String" style="text;align=left;verticalAlign=top;spacingLeft=4;spacingRight=4;overflow=hidden;rotatable=0;points=[[0,0.5],[1,0.5]];portConstraint=eastwest;" vertex="1" parent="0IOI9WurKknLm3v2o658-28">
          <mxGeometry y="118" width="260" height="142" as="geometry" />
        </mxCell>
        <mxCell id="0IOI9WurKknLm3v2o658-32" value="" style="endArrow=block;endSize=16;endFill=0;html=1;rounded=0;entryX=1;entryY=1;entryDx=0;entryDy=0;exitX=0;exitY=0.5;exitDx=0;exitDy=0;" edge="1" parent="WIyWlLk6GJQsqaUBKTNV-1" source="0IOI9WurKknLm3v2o658-9" target="0IOI9WurKknLm3v2o658-28">
          <mxGeometry width="160" relative="1" as="geometry">
            <mxPoint x="200" y="790" as="sourcePoint" />
            <mxPoint x="360" y="790" as="targetPoint" />
          </mxGeometry>
        </mxCell>
        <mxCell id="0IOI9WurKknLm3v2o658-34" value="" style="endArrow=diamondThin;endFill=0;endSize=24;html=1;rounded=0;entryX=0.721;entryY=1.016;entryDx=0;entryDy=0;entryPerimeter=0;exitX=0.5;exitY=0;exitDx=0;exitDy=0;" edge="1" parent="WIyWlLk6GJQsqaUBKTNV-1" source="0IOI9WurKknLm3v2o658-8" target="0IOI9WurKknLm3v2o658-3">
          <mxGeometry width="160" relative="1" as="geometry">
            <mxPoint x="165" y="800" as="sourcePoint" />
            <mxPoint x="325" y="800" as="targetPoint" />
          </mxGeometry>
        </mxCell>
        <mxCell id="0IOI9WurKknLm3v2o658-35" value="" style="endArrow=diamondThin;endFill=0;endSize=24;html=1;rounded=0;entryX=0.5;entryY=1;entryDx=0;entryDy=0;exitX=0.75;exitY=0;exitDx=0;exitDy=0;" edge="1" parent="WIyWlLk6GJQsqaUBKTNV-1" source="0IOI9WurKknLm3v2o658-8" target="zkfFHV4jXpPFQw0GAbJ--0">
          <mxGeometry width="160" relative="1" as="geometry">
            <mxPoint x="190" y="830" as="sourcePoint" />
            <mxPoint x="93" y="782" as="targetPoint" />
          </mxGeometry>
        </mxCell>
        <mxCell id="0IOI9WurKknLm3v2o658-36" value="" style="endArrow=block;endSize=16;endFill=0;html=1;rounded=0;entryX=0.5;entryY=0;entryDx=0;entryDy=0;exitX=0.5;exitY=1;exitDx=0;exitDy=0;" edge="1" parent="WIyWlLk6GJQsqaUBKTNV-1" source="0IOI9WurKknLm3v2o658-4" target="0IOI9WurKknLm3v2o658-28">
          <mxGeometry width="160" relative="1" as="geometry">
            <mxPoint y="883" as="sourcePoint" />
            <mxPoint x="-180" y="770" as="targetPoint" />
          </mxGeometry>
        </mxCell>
        <mxCell id="0IOI9WurKknLm3v2o658-37" value="" style="endArrow=diamondThin;endFill=0;endSize=24;html=1;rounded=0;exitX=1.005;exitY=0.632;exitDx=0;exitDy=0;exitPerimeter=0;entryX=0.005;entryY=0.367;entryDx=0;entryDy=0;entryPerimeter=0;" edge="1" parent="WIyWlLk6GJQsqaUBKTNV-1" source="0IOI9WurKknLm3v2o658-7" target="zkfFHV4jXpPFQw0GAbJ--5">
          <mxGeometry width="160" relative="1" as="geometry">
            <mxPoint x="285" y="830" as="sourcePoint" />
            <mxPoint x="10" y="360" as="targetPoint" />
          </mxGeometry>
        </mxCell>
        <mxCell id="0IOI9WurKknLm3v2o658-38" value="" style="endArrow=block;endSize=16;endFill=0;html=1;rounded=0;exitX=0.25;exitY=1;exitDx=0;exitDy=0;entryX=0.5;entryY=1;entryDx=0;entryDy=0;" edge="1" parent="WIyWlLk6GJQsqaUBKTNV-1" source="0IOI9WurKknLm3v2o658-12" target="0IOI9WurKknLm3v2o658-28">
          <mxGeometry width="160" relative="1" as="geometry">
            <mxPoint x="610" y="1083" as="sourcePoint" />
            <mxPoint x="-420" y="1090" as="targetPoint" />
            <Array as="points">
              <mxPoint x="530" y="1130" />
              <mxPoint x="-340" y="1140" />
            </Array>
          </mxGeometry>
        </mxCell>
        <mxCell id="0IOI9WurKknLm3v2o658-39" value="" style="endArrow=diamondThin;endFill=0;endSize=24;html=1;rounded=0;entryX=0.75;entryY=1;entryDx=0;entryDy=0;exitX=0.155;exitY=-0.011;exitDx=0;exitDy=0;exitPerimeter=0;" edge="1" parent="WIyWlLk6GJQsqaUBKTNV-1" source="0IOI9WurKknLm3v2o658-12" target="zkfFHV4jXpPFQw0GAbJ--0">
          <mxGeometry width="160" relative="1" as="geometry">
            <mxPoint x="285" y="830" as="sourcePoint" />
            <mxPoint x="255" y="510" as="targetPoint" />
          </mxGeometry>
        </mxCell>
        <mxCell id="0IOI9WurKknLm3v2o658-40" value="" style="endArrow=block;endSize=16;endFill=0;html=1;rounded=0;exitX=0.675;exitY=1.003;exitDx=0;exitDy=0;exitPerimeter=0;entryX=0;entryY=1;entryDx=0;entryDy=0;" edge="1" parent="WIyWlLk6GJQsqaUBKTNV-1" source="0IOI9WurKknLm3v2o658-19" target="0IOI9WurKknLm3v2o658-28">
          <mxGeometry width="160" relative="1" as="geometry">
            <mxPoint x="833.4500000000003" y="595.1059999999999" as="sourcePoint" />
            <mxPoint x="-580" y="1120" as="targetPoint" />
            <Array as="points">
              <mxPoint x="710" y="1234.89" />
              <mxPoint x="-160" y="1244.89" />
              <mxPoint x="-520" y="1190" />
            </Array>
          </mxGeometry>
        </mxCell>
        <mxCell id="0IOI9WurKknLm3v2o658-41" value="" style="endArrow=diamondThin;endFill=0;endSize=24;html=1;rounded=0;entryX=1.01;entryY=0.842;entryDx=0;entryDy=0;exitX=0;exitY=0.5;exitDx=0;exitDy=0;entryPerimeter=0;" edge="1" parent="WIyWlLk6GJQsqaUBKTNV-1" source="0IOI9WurKknLm3v2o658-17" target="zkfFHV4jXpPFQw0GAbJ--5">
          <mxGeometry width="160" relative="1" as="geometry">
            <mxPoint x="457" y="648" as="sourcePoint" />
            <mxPoint x="348" y="510" as="targetPoint" />
          </mxGeometry>
        </mxCell>
        <mxCell id="0IOI9WurKknLm3v2o658-42" value="" style="endArrow=diamondThin;endFill=0;endSize=24;html=1;rounded=0;entryX=1;entryY=0.282;entryDx=0;entryDy=0;exitX=-0.003;exitY=0.369;exitDx=0;exitDy=0;entryPerimeter=0;exitPerimeter=0;" edge="1" parent="WIyWlLk6GJQsqaUBKTNV-1" source="0IOI9WurKknLm3v2o658-23" target="zkfFHV4jXpPFQw0GAbJ--5">
          <mxGeometry width="160" relative="1" as="geometry">
            <mxPoint x="666" y="270" as="sourcePoint" />
            <mxPoint x="500" y="220" as="targetPoint" />
          </mxGeometry>
        </mxCell>
        <mxCell id="0IOI9WurKknLm3v2o658-43" value="" style="endArrow=diamondThin;endFill=0;endSize=24;html=1;rounded=0;entryX=1.018;entryY=1.013;entryDx=0;entryDy=0;exitX=0.044;exitY=1.003;exitDx=0;exitDy=0;entryPerimeter=0;exitPerimeter=0;" edge="1" parent="WIyWlLk6GJQsqaUBKTNV-1" source="0IOI9WurKknLm3v2o658-23" target="0IOI9WurKknLm3v2o658-1">
          <mxGeometry width="160" relative="1" as="geometry">
            <mxPoint x="679" y="400" as="sourcePoint" />
            <mxPoint x="430" y="379" as="targetPoint" />
          </mxGeometry>
        </mxCell>
        <mxCell id="0IOI9WurKknLm3v2o658-44" value="" style="endArrow=diamondThin;endFill=0;endSize=24;html=1;rounded=0;exitX=-0.007;exitY=0.006;exitDx=0;exitDy=0;exitPerimeter=0;entryX=1;entryY=1;entryDx=0;entryDy=0;" edge="1" parent="WIyWlLk6GJQsqaUBKTNV-1" source="0IOI9WurKknLm3v2o658-25" target="zkfFHV4jXpPFQw0GAbJ--0">
          <mxGeometry width="160" relative="1" as="geometry">
            <mxPoint x="826" y="630" as="sourcePoint" />
            <mxPoint x="400" y="540" as="targetPoint" />
            <Array as="points">
              <mxPoint x="790" y="630" />
              <mxPoint x="570" y="600" />
            </Array>
          </mxGeometry>
        </mxCell>
        <mxCell id="0IOI9WurKknLm3v2o658-46" value="" style="endArrow=diamondThin;endFill=0;endSize=24;html=1;rounded=0;entryX=0.77;entryY=1.003;entryDx=0;entryDy=0;exitX=0.75;exitY=0;exitDx=0;exitDy=0;entryPerimeter=0;" edge="1" parent="WIyWlLk6GJQsqaUBKTNV-1" source="0IOI9WurKknLm3v2o658-24" target="0IOI9WurKknLm3v2o658-23">
          <mxGeometry width="160" relative="1" as="geometry">
            <mxPoint x="1419" y="521" as="sourcePoint" />
            <mxPoint x="1170" y="500" as="targetPoint" />
          </mxGeometry>
        </mxCell>
        <mxCell id="0IOI9WurKknLm3v2o658-47" value="" style="endArrow=diamondThin;endFill=0;endSize=24;html=1;rounded=0;exitX=1.013;exitY=-0.054;exitDx=0;exitDy=0;exitPerimeter=0;entryX=0.009;entryY=0.864;entryDx=0;entryDy=0;entryPerimeter=0;" edge="1" parent="WIyWlLk6GJQsqaUBKTNV-1" source="0IOI9WurKknLm3v2o658-29" target="zkfFHV4jXpPFQw0GAbJ--5">
          <mxGeometry width="160" relative="1" as="geometry">
            <mxPoint x="-110" y="470" as="sourcePoint" />
            <mxPoint x="-10" y="492" as="targetPoint" />
          </mxGeometry>
        </mxCell>
        <mxCell id="0IOI9WurKknLm3v2o658-48" value="" style="endArrow=diamondThin;endFill=0;endSize=24;html=1;rounded=0;exitX=0.25;exitY=0;exitDx=0;exitDy=0;entryX=0;entryY=1;entryDx=0;entryDy=0;" edge="1" parent="WIyWlLk6GJQsqaUBKTNV-1" source="0IOI9WurKknLm3v2o658-0" target="zkfFHV4jXpPFQw0GAbJ--0">
          <mxGeometry width="160" relative="1" as="geometry">
            <mxPoint x="-177" y="511" as="sourcePoint" />
            <mxPoint x="73" y="455" as="targetPoint" />
          </mxGeometry>
        </mxCell>
      </root>
    </mxGraphModel>
  </diagram>
</mxfile>
